<svg xmlns="http://www.w3.org/2000/svg" viewBox="0 0 128 128" width="128" height="128">
  <path fill="#AEB7CC" fill-rule="evenodd" d="M 32 27 H 96 Q 109 27 109 40 V 86 Q 109 99 96 99 H 32 Q 19 99 19 86 V 40 Q 19 27 32 27 Z M 54.334 79 H 60.598 C 61.138 79 61.246 78.676 61.138 78.244 L 56.314 56.212 C 55.522 52.648 52.822 51.928 49.402 51.928 C 45.982 51.928 43.282 52.648 42.49 56.212 L 37.666 78.244 C 37.594 78.64 37.702 79 38.242 79 H 44.47 C 44.974 79 45.118 78.676 45.19 78.316 L 46.198 73.312 H 52.606 L 53.614 78.316 C 53.686 78.676 53.83 79 54.334 79 Z M 51.562 67.552 H 47.242 L 49.006 58.408 C 49.078 58.084 49.078 57.904 49.402 57.904 C 49.726 57.904 49.726 58.084 49.798 58.408 Z M 88.786 68.848 V 52.972 C 88.786 52.576 88.426 52.252 88.03 52.252 H 82.198 C 81.802 52.252 81.478 52.576 81.478 52.972 V 68.848 C 81.478 72.124 80.434 73.168 77.878 73.168 C 75.322 73.168 74.314 72.124 74.314 68.848 V 52.972 C 74.314 52.576 73.99 52.252 73.594 52.252 H 67.762 C 67.366 52.252 67.006 52.576 67.006 52.972 V 68.848 C 67.006 77.56 72.226 79.324 77.878 79.324 C 83.53 79.324 88.786 77.56 88.786 68.848 Z"/>
</svg>
