<svg xmlns="http://www.w3.org/2000/svg" viewBox="0 0 128 128" width="128" height="128">
  <path fill="#AEB7CC" fill-rule="evenodd" d="M 32 27 H 96 Q 109 27 109 40 V 86 Q 109 99 96 99 H 32 Q 19 99 19 86 V 40 Q 19 27 32 27 Z M 60.67 71.008 V 70.54 C 60.67 68.236 59.374 66.256 57.754 65.32 C 59.374 64.42 60.526 62.476 60.526 60.208 V 59.596 C 60.526 53.548 55.918 51.892 48.826 51.892 C 47.026 51.892 43.498 52.072 41.986 52.324 C 40.33 52.576 39.754 53.08 39.754 55.024 V 76.156 C 39.754 78.1 40.33 78.604 42.022 78.892 C 43.714 79.18 47.098 79.324 48.934 79.324 C 54.694 79.324 60.67 77.956 60.67 71.008 Z M 53.47 60.712 C 53.47 61.972 52.822 62.98 50.446 62.98 H 46.954 V 57.868 C 47.206 57.868 49.51 57.832 50.194 57.832 C 52.75 57.832 53.47 58.516 53.47 60.136 Z M 53.614 70.792 C 53.614 72.34 52.714 73.384 49.906 73.384 H 46.954 V 67.876 H 50.446 C 52.822 67.876 53.614 69.028 53.614 70.468 Z M 89.326 78.46 C 89.326 78.352 89.29 78.208 89.218 78.064 L 83.998 68.272 C 86.266 67.3 88.39 65.032 88.39 61.18 V 60.604 C 88.39 54.016 83.818 51.892 77.122 51.892 C 74.566 51.892 70.966 52.144 69.526 52.36 C 68.014 52.612 67.438 53.008 67.438 54.736 V 78.28 C 67.438 78.676 67.798 79 68.194 79 H 74.026 C 74.422 79 74.746 78.676 74.746 78.28 V 69.46 C 75.862 69.496 76.258 69.496 76.798 69.496 L 81.37 78.28 C 81.55 78.64 81.694 79 82.09 79 H 88.714 C 89.074 79 89.326 78.784 89.326 78.46 Z M 81.118 61.216 C 81.118 62.908 80.146 63.88 77.374 63.88 C 77.158 63.88 74.926 63.88 74.746 63.844 V 58.12 C 75.79 58.048 77.266 58.048 77.518 58.048 C 79.93 58.048 81.118 58.912 81.118 60.604 Z"/>
</svg>
