<svg xmlns="http://www.w3.org/2000/svg" viewBox="0 0 128 128" width="128" height="128">
  <path fill="#AEB7CC" fill-rule="evenodd" d="M 32 27 H 96 Q 109 27 109 40 V 86 Q 109 99 96 99 H 32 Q 19 99 19 86 V 40 Q 19 27 32 27 Z M 58.348 57.472 V 53.08 C 58.348 52.648 58.096 52.432 57.628 52.36 C 56.26 52.18 54.028 51.928 50.536 51.928 C 45.928 51.928 41.32 53.044 41.32 59.992 V 78.28 C 41.32 78.676 41.644 79 42.04 79 H 47.908 C 48.304 79 48.628 78.676 48.628 78.28 V 68.272 H 57.484 C 57.88 68.272 58.204 67.948 58.204 67.552 V 63.304 C 58.204 62.908 57.88 62.584 57.484 62.584 H 48.628 V 59.992 C 48.628 58.588 49.06 58.192 50.356 58.192 H 57.628 C 58.024 58.192 58.348 57.868 58.348 57.472 Z M 87.364 78.46 C 87.364 78.352 87.328 78.208 87.256 78.064 L 82.036 68.272 C 84.304 67.3 86.428 65.032 86.428 61.18 V 60.604 C 86.428 54.016 81.856 51.892 75.16 51.892 C 72.604 51.892 69.004 52.144 67.564 52.36 C 66.052 52.612 65.476 53.008 65.476 54.736 V 78.28 C 65.476 78.676 65.836 79 66.232 79 H 72.064 C 72.46 79 72.784 78.676 72.784 78.28 V 69.46 C 73.9 69.496 74.296 69.496 74.836 69.496 L 79.408 78.28 C 79.588 78.64 79.732 79 80.128 79 H 86.752 C 87.112 79 87.364 78.784 87.364 78.46 Z M 79.156 61.216 C 79.156 62.908 78.184 63.88 75.412 63.88 C 75.196 63.88 72.964 63.88 72.784 63.844 V 58.12 C 73.828 58.048 75.304 58.048 75.556 58.048 C 77.968 58.048 79.156 58.912 79.156 60.604 Z"/>
</svg>
