<svg xmlns="http://www.w3.org/2000/svg" viewBox="0 0 128 128" width="128" height="128">
  <path fill="#AEB7CC" fill-rule="evenodd" d="M 32 27 H 96 Q 109 27 109 40 V 86 Q 109 99 96 99 H 32 Q 19 99 19 86 V 40 Q 19 27 32 27 Z M 53.704 78.28 V 52.936 C 53.704 52.54 53.38 52.252 52.984 52.252 H 47.08 C 46.684 52.252 46.36 52.54 46.36 52.936 V 78.28 C 46.36 78.676 46.684 79 47.08 79 H 52.984 C 53.38 79 53.704 78.676 53.704 78.28 Z M 82.36 67.588 V 63.628 C 82.36 55.528 77.788 51.892 70.66 51.892 C 67.204 51.892 64.288 52.18 62.416 52.504 C 61.624 52.648 61.264 52.936 61.264 53.908 V 77.308 C 61.264 78.28 61.624 78.568 62.416 78.712 C 64.288 79.036 67.24 79.324 70.66 79.324 C 77.824 79.324 82.36 75.688 82.36 67.588 Z M 74.98 67.588 C 74.98 71.944 73.54 73.096 70.66 73.096 C 70.192 73.096 68.86 73.096 68.608 73.06 V 58.192 C 69.652 58.156 70.228 58.156 70.66 58.156 C 73.54 58.156 74.98 59.308 74.98 63.628 Z"/>
</svg>
