<svg xmlns="http://www.w3.org/2000/svg" viewBox="0 0 128 128" width="128" height="128">
  <path fill="#AEB7CC" fill-rule="evenodd" d="M 32 27 H 96 Q 109 27 109 40 V 86 Q 109 99 96 99 H 32 Q 19 99 19 86 V 40 Q 19 27 32 27 Z M 61.822 77.668 V 52.972 C 61.822 52.576 61.498 52.252 61.102 52.252 H 55.702 C 55.306 52.252 54.982 52.576 54.982 52.972 V 65.716 C 54.982 66.004 54.91 66.04 54.802 66.04 C 54.694 66.04 54.622 65.968 54.478 65.716 L 47.17 53.296 C 46.81 52.648 46.414 52.252 45.73 52.252 H 40.978 C 40.258 52.252 39.646 52.864 39.646 53.584 V 78.28 C 39.646 78.676 40.006 79 40.402 79 H 45.802 C 46.198 79 46.522 78.676 46.522 78.28 V 66.004 C 46.522 65.752 46.594 65.68 46.702 65.68 C 46.81 65.68 46.918 65.716 47.062 65.968 L 54.154 78.028 C 54.55 78.712 55.018 79 55.666 79 H 60.49 C 61.21 79 61.822 78.388 61.822 77.668 Z M 88.606 77.632 V 65.572 C 88.606 65.176 88.282 64.852 87.886 64.852 H 82.198 C 81.802 64.852 81.514 65.176 81.514 65.572 V 72.952 C 80.902 73.024 80.218 73.06 79.534 73.06 C 78.13 73.06 76.078 72.376 76.078 67.552 V 63.736 C 76.078 59.38 77.626 58.336 81.046 58.336 C 83.71 58.336 86.626 58.552 87.994 58.66 C 88.426 58.696 88.606 58.588 88.606 58.084 V 53.548 C 88.606 53.08 88.426 53.008 87.922 52.864 C 86.446 52.468 83.782 51.892 80.038 51.892 C 75.034 51.892 68.662 53.872 68.662 63.736 V 67.516 C 68.662 77.272 75.214 79.324 79.534 79.324 C 83.026 79.324 85.798 78.892 87.85 78.46 C 88.426 78.352 88.606 78.172 88.606 77.632 Z"/>
</svg>
